<?xml version="1.0" encoding="UTF-8" standalone="no"?>
<!DOCTYPE svg PUBLIC "-//W3C//DTD SVG 1.1//EN" "http://www.w3.org/Graphics/SVG/1.1/DTD/svg11.dtd">
<svg xmlns="http://www.w3.org/2000/svg" version="1.1" viewBox="0 0 512 512">
<path fill="#ffffff" d="
  M 206.31 0.00
  L 210.56 0.00
  C 369.26 9.98 495.90 132.78 510.97 290.60
  Q 512.24 303.88 511.45 307.50
  C 509.48 316.65 501.78 320.06 492.92 320.03
  Q 480.29 319.98 467.72 320.00
  C 454.31 320.01 448.68 315.04 447.67 301.61
  C 438.00 173.98 337.11 72.18 208.87 63.58
  C 196.04 62.72 191.97 55.61 192.00 43.48
  Q 192.02 31.60 191.99 19.73
  C 191.96 9.36 195.38 2.17 206.31 0.00
  Z"
/>
<path fill="#ffffff" d="
  M 146.44 512.00
  L 141.44 512.00
  C 63.62 509.19 3.27 450.16 0.00 372.19
  L 0.00 117.69
  C 2.84 101.46 13.55 95.96 28.57 95.99
  Q 48.50 96.02 68.40 95.99
  C 80.57 95.97 90.59 100.12 94.64 112.46
  Q 96.01 116.62 96.01 124.72
  Q 95.99 242.23 96.00 359.75
  C 96.00 375.73 97.41 387.47 107.06 398.68
  C 132.75 428.52 179.97 418.00 190.52 380.02
  C 196.86 357.23 184.19 333.56 163.11 323.98
  Q 155.35 320.45 154.09 319.55
  C 146.27 314.03 143.97 307.10 143.99 297.34
  Q 144.02 277.65 144.00 257.99
  Q 143.99 246.62 145.53 242.21
  C 149.60 230.58 162.11 224.28 174.29 227.06
  Q 218.60 237.14 249.18 269.82
  C 298.04 322.04 301.35 404.46 255.33 459.57
  Q 213.73 509.41 146.44 512.00
  Z"
/>
<path fill="#ffffff" d="
  M 213.24 96.35
  C 319.89 106.59 405.06 191.42 415.51 298.25
  C 416.40 307.36 414.82 315.14 405.98 318.64
  Q 402.38 320.07 393.84 320.03
  Q 382.67 319.97 371.51 319.99
  Q 364.50 320.00 361.22 318.60
  C 353.51 315.31 352.40 309.54 351.29 301.06
  C 341.43 226.01 284.10 167.60 208.12 160.18
  C 196.50 159.05 192.01 152.33 192.02 141.15
  Q 192.02 129.75 191.97 118.35
  Q 191.92 109.51 193.40 105.86
  C 196.84 97.30 204.36 95.50 213.24 96.35
  Z"
/>
</svg>
