<?xml version="1.0" encoding="UTF-8" standalone="no"?>
<!DOCTYPE svg PUBLIC "-//W3C//DTD SVG 1.1//EN" "http://www.w3.org/Graphics/SVG/1.1/DTD/svg11.dtd">
<svg xmlns="http://www.w3.org/2000/svg" version="1.1" viewBox="0 0 240 240">
<path fill="#ffffff" d="
  M 137.31 0.00
  L 180.06 0.00
  L 179.99 49.47
  A 0.51 0.50 -0.0 0 1 179.48 49.97
  Q 164.46 49.96 149.43 50.02
  C 143.35 50.04 140.78 53.53 140.33 59.43
  Q 139.58 69.45 140.19 79.51
  A 0.56 0.52 -1.6 0 0 140.75 80.00
  L 179.50 80.00
  A 0.47 0.45 2.8 0 1 179.97 80.50
  L 176.49 119.50
  A 0.54 0.49 -87.5 0 1 176.00 120.00
  L 140.50 120.00
  A 0.55 0.50 90.0 0 0 140.00 120.55
  L 139.94 240.00
  L 90.19 240.00
  L 90.06 120.90
  A 1.06 0.90 0.0 0 0 89.00 120.00
  L 60.50 120.00
  A 0.50 0.50 0.0 0 1 60.00 119.50
  L 60.00 80.50
  A 0.50 0.50 0.0 0 1 60.50 80.00
  L 89.50 80.00
  A 0.53 0.47 90.0 0 0 89.97 79.47
  Q 90.03 61.71 89.99 44.01
  C 89.93 13.84 109.87 1.36 137.31 0.00
  Z"
/>
</svg>
