<?xml version="1.0" encoding="UTF-8" standalone="no"?>
<!DOCTYPE svg PUBLIC "-//W3C//DTD SVG 1.1//EN" "http://www.w3.org/Graphics/SVG/1.1/DTD/svg11.dtd">
<svg xmlns="http://www.w3.org/2000/svg" version="1.1" viewBox="0 0 512 512">
<path fill="#ffffff" d="
  M 224.24 82.06
  Q 223.15 82.06 224.02 82.72
  C 243.89 97.81 257.07 117.79 259.46 142.87
  C 262.98 179.83 243.53 200.97 216.32 222.06
  C 200.25 234.52 197.01 254.07 214.73 267.17
  Q 234.17 281.54 249.92 295.58
  C 272.29 315.53 282.96 342.50 274.28 372.25
  C 254.28 440.86 166.14 454.93 107.02 444.94
  C 73.99 439.36 36.71 419.68 32.30 382.22
  C 29.65 359.64 42.15 335.71 59.79 322.28
  C 90.09 299.22 131.61 292.96 168.52 291.29
  Q 169.63 291.24 168.93 290.38
  C 155.67 274.13 149.13 257.68 159.07 237.47
  Q 159.29 237.02 158.79 237.10
  C 116.92 243.28 73.87 224.05 61.12 181.32
  Q 52.70 153.13 65.28 125.22
  C 85.33 80.70 132.54 64.23 178.31 64.09
  Q 232.40 63.91 286.51 64.03
  Q 288.23 64.03 286.72 64.85
  Q 272.29 72.62 257.61 80.84
  Q 255.76 81.87 253.65 81.89
  Q 238.85 82.05 224.24 82.06
  Z
  M 200.44 117.07
  C 188.72 93.85 165.95 75.15 138.16 82.35
  C 99.71 92.31 98.43 134.88 107.52 165.57
  C 115.45 192.38 132.22 221.18 162.74 223.95
  Q 176.91 225.24 189.76 218.74
  C 227.58 199.59 215.05 146.02 200.44 117.07
  Z
  M 77.30 365.29
  C 77.61 393.17 99.22 412.73 124.24 420.27
  C 158.74 430.68 220.01 432.72 238.45 392.94
  C 245.73 377.22 244.05 357.74 232.95 343.80
  C 221.14 328.99 202.99 316.43 186.88 306.04
  A 1.80 1.77 62.6 0 0 185.96 305.74
  C 148.08 304.21 76.71 312.28 77.30 365.29
  Z"
/>
<path fill="#ffffff" d="
  M 402.25 142.25
  L 479.50 142.25
  A 0.50 0.50 0.0 0 1 480.00 142.75
  L 480.00 159.50
  A 0.50 0.50 0.0 0 1 479.50 160.00
  L 402.25 160.00
  A 0.50 0.50 0.0 0 0 401.75 160.50
  L 401.75 240.50
  A 0.50 0.50 0.0 0 1 401.25 241.00
  L 384.50 241.00
  A 0.75 0.50 90.0 0 1 384.00 240.25
  L 384.00 161.25
  A 1.25 1.25 0.0 0 0 382.75 160.00
  L 304.75 160.00
  A 0.50 0.50 0.0 0 1 304.25 159.50
  L 304.25 143.00
  A 0.75 0.75 0.0 0 1 305.00 142.25
  L 383.50 142.25
  A 0.50 0.50 0.0 0 0 384.00 141.75
  L 384.00 64.50
  A 0.50 0.50 0.0 0 1 384.50 64.00
  L 401.25 64.00
  A 0.50 0.50 0.0 0 1 401.75 64.50
  L 401.75 141.75
  A 0.50 0.50 0.0 0 0 402.25 142.25
  Z"
/>
</svg>
