<?xml version="1.0" encoding="UTF-8" standalone="no"?>
<!DOCTYPE svg PUBLIC "-//W3C//DTD SVG 1.1//EN" "http://www.w3.org/Graphics/SVG/1.1/DTD/svg11.dtd">
<svg xmlns="http://www.w3.org/2000/svg" version="1.1" viewBox="0 0 512 512">
<path fill="#000000" d="
  M 168.71 291.20
  Q 169.55 291.16 169.01 290.51
  C 155.61 274.20 148.96 258.34 158.98 237.94
  Q 159.48 236.92 158.36 237.09
  C 115.17 243.53 72.73 223.05 60.44 179.26
  C 51.69 148.06 64.60 114.72 88.03 93.83
  C 113.66 70.97 148.73 64.07 182.19 64.03
  Q 234.47 63.96 286.77 64.01
  Q 288.17 64.01 286.94 64.68
  Q 272.22 72.71 257.28 81.01
  Q 255.50 82.00 253.45 82.00
  Q 238.86 82.00 224.43 82.00
  Q 223.06 82.00 224.15 82.82
  C 236.18 91.87 246.72 103.73 252.85 117.42
  C 261.62 136.99 262.51 160.74 253.76 180.60
  C 245.95 198.37 231.06 210.88 215.92 222.41
  Q 212.03 225.36 208.12 230.92
  C 198.01 245.28 202.14 257.69 215.41 267.73
  C 230.11 278.84 243.62 288.96 256.10 301.64
  C 291.50 337.63 279.63 389.49 242.43 418.45
  C 208.85 444.59 159.75 451.25 117.98 446.61
  C 90.64 443.57 58.69 432.74 42.55 408.97
  Q 24.54 382.45 36.97 352.02
  C 56.74 303.63 123.54 293.48 168.71 291.20
  Z
  M 214.74 173.01
  C 213.99 141.70 199.33 96.92 167.00 83.94
  C 151.52 77.72 133.65 80.72 120.68 90.99
  C 92.29 113.49 102.67 161.67 116.62 188.69
  C 128.12 210.97 148.52 227.95 175.20 223.43
  C 201.45 218.98 215.35 198.74 214.74 173.01
  Z
  M 77.49 359.50
  C 74.49 390.81 97.57 412.37 125.51 420.72
  C 157.80 430.37 213.14 431.85 234.77 399.49
  C 242.50 387.93 244.97 372.88 241.01 359.05
  C 238.32 349.65 231.61 341.08 224.09 334.14
  Q 210.59 321.68 187.09 306.06
  A 1.82 1.79 -25.7 0 0 186.18 305.75
  C 150.86 304.08 82.11 311.27 77.49 359.50
  Z"
/>
<path fill="#000000" d="
  M 384.00 141.75
  L 384.00 64.50
  A 0.49 0.31 90.0 0 1 384.31 64.01
  L 401.25 64.00
  A 0.75 0.50 90.0 0 1 401.75 64.75
  L 401.75 141.75
  A 0.50 0.50 0.0 0 0 402.25 142.25
  L 479.50 142.25
  A 0.50 0.50 0.0 0 1 480.00 142.75
  L 480.00 159.50
  A 0.75 0.50 -0.0 0 1 479.25 160.00
  L 402.25 160.00
  A 0.50 0.50 0.0 0 0 401.75 160.50
  L 401.75 240.50
  A 0.50 0.50 0.0 0 1 401.25 241.00
  L 384.50 241.00
  A 0.75 0.50 90.0 0 1 384.00 240.25
  L 384.00 160.50
  A 0.50 0.50 0.0 0 0 383.50 160.00
  L 304.75 160.00
  A 0.50 0.50 0.0 0 1 304.25 159.50
  L 304.25 142.75
  A 0.75 0.50 -0.0 0 1 305.00 142.25
  L 383.50 142.25
  A 0.50 0.50 0.0 0 0 384.00 141.75
  Z"
/>
</svg>
