<?xml version="1.0" encoding="UTF-8" standalone="no"?>
<!DOCTYPE svg PUBLIC "-//W3C//DTD SVG 1.1//EN" "http://www.w3.org/Graphics/SVG/1.1/DTD/svg11.dtd">
<svg xmlns="http://www.w3.org/2000/svg" version="1.1" viewBox="0 0 240 240">
<path fill="#ffffff" d="
  M 91.81 0.00
  L 148.56 0.00
  Q 160.13 0.36 171.67 0.92
  C 211.20 2.87 236.28 26.69 238.97 66.00
  Q 239.65 75.94 240.00 91.31
  L 240.00 149.06
  Q 239.68 157.16 239.51 165.24
  C 238.59 210.29 215.24 237.11 169.51 239.28
  Q 165.67 239.46 147.44 240.00
  L 92.19 240.00
  C 78.49 239.54 64.49 239.86 51.15 236.56
  C 17.53 228.26 1.81 202.71 0.67 169.00
  Q 0.31 158.48 0.00 147.94
  L 0.00 91.69
  C 0.26 74.21 0.25 58.57 5.59 43.63
  C 15.01 17.30 35.80 4.45 63.01 1.28
  Q 70.07 0.46 91.81 0.00
  Z
  M 217.40 67.69
  C 216.51 52.85 210.27 36.23 196.18 29.04
  C 182.19 21.89 165.31 21.86 150.50 21.77
  Q 130.49 21.65 86.07 22.04
  C 62.40 22.25 37.49 23.06 26.78 48.55
  C 21.90 60.19 21.83 77.38 21.77 89.25
  Q 21.65 110.16 22.04 153.68
  C 22.18 168.99 22.00 185.21 30.29 198.18
  C 38.78 211.48 53.64 216.64 69.00 217.46
  C 95.54 218.87 122.28 218.27 148.84 218.22
  C 161.90 218.19 174.93 218.20 186.98 214.65
  C 218.08 205.49 218.13 175.38 218.21 149.08
  C 218.30 122.04 219.02 94.68 217.40 67.69
  Z"
/>
<circle fill="#ffffff" cx="184.06" cy="55.94" r="14.38"/>
<path fill="#ffffff" d="
  M 181.60 120.00
  A 61.60 61.60 0.0 0 1 120.00 181.60
  A 61.60 61.60 0.0 0 1 58.40 120.00
  A 61.60 61.60 0.0 0 1 120.00 58.40
  A 61.60 61.60 0.0 0 1 181.60 120.00
  Z
  M 159.93 120.00
  A 39.93 39.93 0.0 0 0 120.00 80.07
  A 39.93 39.93 0.0 0 0 80.07 120.00
  A 39.93 39.93 0.0 0 0 120.00 159.93
  A 39.93 39.93 0.0 0 0 159.93 120.00
  Z"
/>
</svg>
