<?xml version="1.0" encoding="UTF-8" standalone="no"?>
<!DOCTYPE svg PUBLIC "-//W3C//DTD SVG 1.1//EN" "http://www.w3.org/Graphics/SVG/1.1/DTD/svg11.dtd">
<svg xmlns="http://www.w3.org/2000/svg" version="1.1" viewBox="0 0 240 240">
<path fill="#ffffff" d="
  M 54.24 36.74
  C 87.11 4.00 139.64 1.27 176.33 28.36
  C 201.47 46.93 215.43 77.64 219.03 108.09
  Q 219.14 109.00 218.34 108.63
  Q 208.54 104.00 197.92 101.89
  A 0.85 0.68 86.2 0 1 197.36 101.28
  C 186.59 58.06 149.85 33.86 106.02 40.89
  C 72.62 46.24 50.99 68.93 42.65 101.27
  A 0.85 0.71 -86.6 0 1 42.07 101.88
  Q 31.36 104.04 21.50 108.74
  Q 21.01 108.97 21.07 108.46
  C 23.95 81.44 34.93 55.98 54.24 36.74
  Z"
/>
<path fill="#ffffff" d="
  M 0.00 178.19
  L 0.00 171.44
  C 2.46 139.00 28.03 119.71 59.47 120.15
  A 0.60 0.53 90.0 0 1 60.00 120.75
  L 60.00 229.50
  A 0.51 0.45 0.0 0 1 59.49 229.95
  C 27.76 230.15 2.73 211.23 0.00 178.19
  Z"
/>
<path fill="#ffffff" d="
  M 240.00 171.56
  L 240.00 178.56
  C 237.51 210.82 211.83 230.53 180.57 229.84
  A 0.59 0.58 -89.5 0 1 180.00 229.25
  L 180.00 120.75
  A 0.80 0.72 -89.3 0 1 180.74 119.95
  C 213.15 120.84 236.40 137.77 240.00 171.56
  Z"
/>
</svg>
