<?xml version="1.0" encoding="UTF-8" standalone="no"?>
<!DOCTYPE svg PUBLIC "-//W3C//DTD SVG 1.1//EN" "http://www.w3.org/Graphics/SVG/1.1/DTD/svg11.dtd">
<svg xmlns="http://www.w3.org/2000/svg" version="1.1" viewBox="0 0 274 430">
<path fill="#ffffff" d="
  M 94.47 -0.01
  L 156.06 0.00
  L 156.02 99.01
  A 0.49 0.48 90.0 0 0 156.50 99.50
  L 255.75 99.50
  A 0.50 0.50 0.0 0 1 256.25 100.00
  L 256.25 175.75
  A 0.50 0.50 0.0 0 1 255.75 176.25
  L 156.50 176.25
  A 0.49 0.49 0.0 0 0 156.01 176.74
  Q 155.98 244.03 156.02 311.31
  C 156.02 317.00 156.11 324.52 157.47 329.65
  C 162.52 348.79 184.02 358.83 202.26 359.67
  C 227.37 360.82 251.88 353.02 272.56 339.02
  Q 273.25 338.56 273.25 339.50
  L 273.25 406.25
  A 0.85 0.60 -16.4 0 1 272.75 406.88
  C 242.58 420.51 213.70 429.30 179.94 430.00
  L 168.69 430.00
  C 133.42 428.84 95.41 414.77 73.70 385.81
  C 62.32 370.63 60.06 351.06 59.99 331.44
  Q 59.71 254.00 59.76 177.19
  A 1.01 0.94 -0.0 0 0 58.75 176.25
  L 1.50 176.25
  A 0.55 0.50 0.0 0 1 0.95 175.75
  L 0.96 115.94
  A 0.70 0.70 -10.2 0 1 1.42 115.28
  C 14.10 110.77 29.73 105.19 42.32 97.01
  C 75.56 75.45 89.59 37.77 94.47 -0.01
  Z"
/>
</svg>
