<?xml version="1.0" encoding="UTF-8" standalone="no"?>
<!DOCTYPE svg PUBLIC "-//W3C//DTD SVG 1.1//EN" "http://www.w3.org/Graphics/SVG/1.1/DTD/svg11.dtd">
<svg xmlns="http://www.w3.org/2000/svg" version="1.1" viewBox="0 0 240 240">
<path fill="#ffffff" d="
  M 31.04 96.89
  C 10.15 81.21 4.23 55.23 16.40 31.93
  A 0.38 0.30 -53.7 0 1 16.95 31.78
  Q 56.24 78.29 117.50 82.99
  A 0.42 0.36 86.6 0 0 117.87 82.50
  Q 116.32 72.04 116.98 67.23
  C 122.82 24.65 170.61 7.67 201.76 37.57
  A 1.12 0.94 58.8 0 0 202.68 37.88
  Q 218.68 34.54 232.83 26.35
  Q 233.42 26.01 233.25 26.50
  Q 227.48 43.16 212.71 52.71
  Q 211.81 53.29 212.93 53.14
  Q 226.73 51.26 239.49 45.73
  Q 240.08 45.47 239.73 45.98
  Q 229.90 60.33 215.94 70.70
  A 1.10 0.92 74.1 0 0 215.56 71.55
  C 216.80 141.75 170.64 204.12 99.88 215.55
  Q 47.24 224.05 1.04 196.20
  Q -0.30 195.39 1.31 195.54
  Q 40.75 199.08 72.09 175.59
  Q 72.57 175.23 71.97 175.17
  Q 38.91 172.04 27.00 141.47
  Q 26.71 140.73 27.48 140.86
  Q 37.81 142.55 48.00 140.25
  Q 49.17 139.99 47.90 139.69
  C 25.57 134.30 9.63 114.90 9.70 91.71
  A 0.39 0.32 -78.2 0 1 10.18 91.33
  Q 19.96 96.48 31.00 97.16
  Q 31.43 97.18 31.04 96.89
  Z"
/>
</svg>
