<?xml version="1.0" encoding="UTF-8" standalone="no"?>
<!DOCTYPE svg PUBLIC "-//W3C//DTD SVG 1.1//EN" "http://www.w3.org/Graphics/SVG/1.1/DTD/svg11.dtd">
<svg xmlns="http://www.w3.org/2000/svg" version="1.1" viewBox="0 0 240 240">
<path fill="#ffffff" d="
  M 240.00 110.06
  L 240.00 130.56
  C 239.66 148.58 239.35 169.71 232.67 186.19
  C 223.32 209.27 197.77 208.50 176.82 209.19
  Q 112.77 211.28 48.75 208.50
  C 38.43 208.05 27.12 206.58 18.82 200.87
  C -0.55 187.54 0.64 150.41 0.00 129.94
  L 0.00 109.94
  Q 0.32 95.98 1.41 82.08
  C 2.91 62.90 7.20 41.09 28.51 34.49
  C 38.04 31.53 46.84 31.55 60.14 31.05
  Q 127.45 28.55 194.75 31.67
  C 220.89 32.88 232.13 44.20 236.89 69.16
  C 239.42 82.44 239.70 98.10 240.00 110.06
  Z
  M 169.67 119.84
  L 90.50 80.25
  A 0.35 0.31 14.9 0 0 90.00 80.50
  L 90.00 159.25
  A 0.48 0.35 80.8 0 0 90.50 159.75
  L 169.56 120.05
  Q 169.83 119.91 169.67 119.84
  Z"
/>
</svg>
